<svg width="75" height="76" viewBox="0 0 75 76" fill="none" xmlns="http://www.w3.org/2000/svg">
<path d="M55.3359 33.8103C55.5738 33.8103 55.7666 33.6174 55.7666 33.3796C55.7666 33.1418 55.5738 32.9489 55.3359 32.9489C55.0981 32.9489 54.9053 33.1418 54.9053 33.3796C54.9053 33.6174 55.0981 33.8103 55.3359 33.8103Z" fill="url(#paint0_linear_216_197)"/>
<path d="M55.5474 41.438C55.7852 41.438 55.978 41.2452 55.978 41.0074C55.978 40.7695 55.7852 40.5767 55.5474 40.5767C55.3095 40.5767 55.1167 40.7695 55.1167 41.0074C55.1167 41.2452 55.3095 41.438 55.5474 41.438Z" fill="url(#paint1_linear_216_197)"/>
<path d="M38.7811 75.3942C39.0068 75.3942 39.1898 75.2112 39.1898 74.9855C39.1898 74.7597 39.0068 74.5767 38.7811 74.5767C38.5553 74.5767 38.3723 74.7597 38.3723 74.9855C38.3723 75.2112 38.5553 75.3942 38.7811 75.3942Z" fill="url(#paint2_linear_216_197)"/>
<path d="M28.2191 74.241C28.4448 74.241 28.6278 74.0579 28.6278 73.8322C28.6278 73.6064 28.4448 73.4234 28.2191 73.4234C27.9933 73.4234 27.8103 73.6064 27.8103 73.8322C27.8103 74.0579 27.9933 74.241 28.2191 74.241Z" fill="url(#paint3_linear_216_197)"/>
<path d="M18.4158 70.168C18.6416 70.168 18.8246 69.985 18.8246 69.7592C18.8246 69.5335 18.6416 69.3504 18.4158 69.3504C18.1901 69.3504 18.0071 69.5335 18.0071 69.7592C18.0071 69.985 18.1901 70.168 18.4158 70.168Z" fill="url(#paint4_linear_216_197)"/>
<path d="M10.1605 63.4891C10.3862 63.4891 10.5692 63.3061 10.5692 63.0804C10.5692 62.8546 10.3862 62.6716 10.1605 62.6716C9.93472 62.6716 9.75171 62.8546 9.75171 63.0804C9.75171 63.3061 9.93472 63.4891 10.1605 63.4891Z" fill="url(#paint5_linear_216_197)"/>
<path d="M4.10944 54.7592C4.33519 54.7592 4.5182 54.5762 4.5182 54.3504C4.5182 54.1247 4.33519 53.9417 4.10944 53.9417C3.88369 53.9417 3.70068 54.1247 3.70068 54.3504C3.70068 54.5762 3.88369 54.7592 4.10944 54.7592Z" fill="url(#paint6_linear_216_197)"/>
<path d="M0.773506 44.6789C0.999257 44.6789 1.18227 44.4959 1.18227 44.2701C1.18227 44.0444 0.999257 43.8614 0.773506 43.8614C0.547754 43.8614 0.364746 44.0444 0.364746 44.2701C0.364746 44.4959 0.547754 44.6789 0.773506 44.6789Z" fill="url(#paint7_linear_216_197)"/>
<path d="M0.40876 34.0657C0.634511 34.0657 0.817519 33.8827 0.817519 33.657C0.817519 33.4312 0.634511 33.2482 0.40876 33.2482C0.183008 33.2482 0 33.4312 0 33.657C0 33.8827 0.183008 34.0657 0.40876 34.0657Z" fill="url(#paint8_linear_216_197)"/>
<path d="M3.05134 23.7811C3.27709 23.7811 3.4601 23.598 3.4601 23.3723C3.4601 23.1465 3.27709 22.9635 3.05134 22.9635C2.82559 22.9635 2.64258 23.1465 2.64258 23.3723C2.64258 23.598 2.82559 23.7811 3.05134 23.7811Z" fill="url(#paint9_linear_216_197)"/>
<path d="M8.48176 14.657C8.70751 14.657 8.89052 14.4739 8.89052 14.2482C8.89052 14.0224 8.70751 13.8394 8.48176 13.8394C8.25601 13.8394 8.073 14.0224 8.073 14.2482C8.073 14.4739 8.25601 14.657 8.48176 14.657Z" fill="url(#paint10_linear_216_197)"/>
<path d="M16.2628 7.43066C16.4885 7.43066 16.6715 7.24765 16.6715 7.0219C16.6715 6.79615 16.4885 6.61314 16.2628 6.61314C16.037 6.61314 15.854 6.79615 15.854 7.0219C15.854 7.24765 16.037 7.43066 16.2628 7.43066Z" fill="url(#paint11_linear_216_197)"/>
<path d="M25.7664 2.68613C25.9922 2.68613 26.1752 2.50312 26.1752 2.27737C26.1752 2.05161 25.9922 1.86861 25.7664 1.86861C25.5407 1.86861 25.3577 2.05161 25.3577 2.27737C25.3577 2.50312 25.5407 2.68613 25.7664 2.68613Z" fill="url(#paint12_linear_216_197)"/>
<path d="M36.2191 0.817519C36.4448 0.817519 36.6278 0.634511 36.6278 0.40876C36.6278 0.183008 36.4448 0 36.2191 0C35.9933 0 35.8103 0.183008 35.8103 0.40876C35.8103 0.634511 35.9933 0.817519 36.2191 0.817519Z" fill="url(#paint13_linear_216_197)"/>
<path d="M46.7738 1.97079C46.9995 1.97079 47.1825 1.78779 47.1825 1.56203C47.1825 1.33628 46.9995 1.15327 46.7738 1.15327C46.548 1.15327 46.365 1.33628 46.365 1.56203C46.365 1.78779 46.548 1.97079 46.7738 1.97079Z" fill="url(#paint14_linear_216_197)"/>
<path d="M56.5841 6.04381C56.8098 6.04381 56.9928 5.8608 56.9928 5.63505C56.9928 5.4093 56.8098 5.22629 56.5841 5.22629C56.3583 5.22629 56.1753 5.4093 56.1753 5.63505C56.1753 5.8608 56.3583 6.04381 56.5841 6.04381Z" fill="url(#paint15_linear_216_197)"/>
<path d="M64.8397 12.7226C65.0654 12.7226 65.2484 12.5396 65.2484 12.3139C65.2484 12.0881 65.0654 11.9051 64.8397 11.9051C64.6139 11.9051 64.4309 12.0881 64.4309 12.3139C64.4309 12.5396 64.6139 12.7226 64.8397 12.7226Z" fill="url(#paint16_linear_216_197)"/>
<path d="M70.8834 21.4526C71.1091 21.4526 71.2921 21.2696 71.2921 21.0438C71.2921 20.8181 71.1091 20.6351 70.8834 20.6351C70.6576 20.6351 70.4746 20.8181 70.4746 21.0438C70.4746 21.2696 70.6576 21.4526 70.8834 21.4526Z" fill="url(#paint17_linear_216_197)"/>
<path d="M74.2264 31.5329C74.4521 31.5329 74.6351 31.3499 74.6351 31.1241C74.6351 30.8984 74.4521 30.7154 74.2264 30.7154C74.0006 30.7154 73.8176 30.8984 73.8176 31.1241C73.8176 31.3499 74.0006 31.5329 74.2264 31.5329Z" fill="url(#paint18_linear_216_197)"/>
<path d="M74.5911 42.146C74.8169 42.146 74.9999 41.963 74.9999 41.7373C74.9999 41.5115 74.8169 41.3285 74.5911 41.3285C74.3654 41.3285 74.1824 41.5115 74.1824 41.7373C74.1824 41.963 74.3654 42.146 74.5911 42.146Z" fill="url(#paint19_linear_216_197)"/>
<path d="M71.9488 52.4307C72.1745 52.4307 72.3576 52.2477 72.3576 52.0219C72.3576 51.7962 72.1745 51.6132 71.9488 51.6132C71.723 51.6132 71.54 51.7962 71.54 52.0219C71.54 52.2477 71.723 52.4307 71.9488 52.4307Z" fill="url(#paint20_linear_216_197)"/>
<path d="M66.5184 61.5548C66.7441 61.5548 66.9271 61.3718 66.9271 61.146C66.9271 60.9203 66.7441 60.7373 66.5184 60.7373C66.2926 60.7373 66.1096 60.9203 66.1096 61.146C66.1096 61.3718 66.2926 61.5548 66.5184 61.5548Z" fill="url(#paint21_linear_216_197)"/>
<path d="M58.7374 68.7811C58.9631 68.7811 59.1461 68.5981 59.1461 68.3723C59.1461 68.1466 58.9631 67.9636 58.7374 67.9636C58.5116 67.9636 58.3286 68.1466 58.3286 68.3723C58.3286 68.5981 58.5116 68.7811 58.7374 68.7811Z" fill="url(#paint22_linear_216_197)"/>
<path d="M49.2337 73.5183C49.4595 73.5183 49.6425 73.3353 49.6425 73.1096C49.6425 72.8838 49.4595 72.7008 49.2337 72.7008C49.008 72.7008 48.825 72.8838 48.825 73.1096C48.825 73.3353 49.008 73.5183 49.2337 73.5183Z" fill="url(#paint23_linear_216_197)"/>
<path d="M62.2484 21.3577C62.4701 21.3577 62.6498 21.178 62.6498 20.9562C62.6498 20.7345 62.4701 20.5548 62.2484 20.5548C62.0267 20.5548 61.8469 20.7345 61.8469 20.9562C61.8469 21.178 62.0267 21.3577 62.2484 21.3577Z" fill="url(#paint24_linear_216_197)"/>
<path d="M65.3504 27.2847C65.5722 27.2847 65.7519 27.105 65.7519 26.8832C65.7519 26.6615 65.5722 26.4818 65.3504 26.4818C65.1287 26.4818 64.949 26.6615 64.949 26.8832C64.949 27.105 65.1287 27.2847 65.3504 27.2847Z" fill="url(#paint25_linear_216_197)"/>
<path d="M67.0582 33.7519C67.2799 33.7519 67.4597 33.5721 67.4597 33.3504C67.4597 33.1287 67.2799 32.9489 67.0582 32.9489C66.8365 32.9489 66.6567 33.1287 66.6567 33.3504C66.6567 33.5721 66.8365 33.7519 67.0582 33.7519Z" fill="url(#paint26_linear_216_197)"/>
<path d="M67.2848 40.438C67.5065 40.438 67.6862 40.2583 67.6862 40.0365C67.6862 39.8148 67.5065 39.6351 67.2848 39.6351C67.063 39.6351 66.8833 39.8148 66.8833 40.0365C66.8833 40.2583 67.063 40.438 67.2848 40.438Z" fill="url(#paint27_linear_216_197)"/>
<path d="M66.0147 47.0073C66.2365 47.0073 66.4162 46.8276 66.4162 46.6059C66.4162 46.3842 66.2365 46.2044 66.0147 46.2044C65.793 46.2044 65.6133 46.3842 65.6133 46.6059C65.6133 46.8276 65.793 47.0073 66.0147 47.0073Z" fill="url(#paint28_linear_216_197)"/>
<path d="M63.3211 53.1314C63.5429 53.1314 63.7226 52.9517 63.7226 52.73C63.7226 52.5083 63.5429 52.3285 63.3211 52.3285C63.0994 52.3285 62.9197 52.5083 62.9197 52.73C62.9197 52.9517 63.0994 53.1314 63.3211 53.1314Z" fill="url(#paint29_linear_216_197)"/>
<path d="M59.5621 27.9854C59.7878 27.9854 59.9708 27.8024 59.9708 27.5767C59.9708 27.3509 59.7878 27.1679 59.5621 27.1679C59.3363 27.1679 59.1533 27.3509 59.1533 27.5767C59.1533 27.8024 59.3363 27.9854 59.5621 27.9854Z" fill="url(#paint30_linear_216_197)"/>
<path d="M61.4744 34.3139C61.7002 34.3139 61.8832 34.1309 61.8832 33.9052C61.8832 33.6794 61.7002 33.4964 61.4744 33.4964C61.2487 33.4964 61.0657 33.6794 61.0657 33.9052C61.0657 34.1309 61.2487 34.3139 61.4744 34.3139Z" fill="url(#paint31_linear_216_197)"/>
<path d="M61.6058 40.9271C61.8315 40.9271 62.0145 40.7441 62.0145 40.5183C62.0145 40.2925 61.8315 40.1095 61.6058 40.1095C61.38 40.1095 61.197 40.2925 61.197 40.5183C61.197 40.7441 61.38 40.9271 61.6058 40.9271Z" fill="url(#paint32_linear_216_197)"/>
<path d="M59.9564 47.3285C60.1821 47.3285 60.3651 47.1455 60.3651 46.9198C60.3651 46.694 60.1821 46.511 59.9564 46.511C59.7306 46.511 59.5476 46.694 59.5476 46.9198C59.5476 47.1455 59.7306 47.3285 59.9564 47.3285Z" fill="url(#paint33_linear_216_197)"/>
<path d="M51.5401 50.5402C52.6326 50.5402 53.5182 49.6546 53.5182 48.5621C53.5182 47.4696 52.6326 46.584 51.5401 46.584C50.4476 46.584 49.562 47.4696 49.562 48.5621C49.562 49.6546 50.4476 50.5402 51.5401 50.5402Z" fill="url(#paint34_linear_216_197)"/>
<path d="M46.5838 54.9271C47.6763 54.9271 48.5619 54.0414 48.5619 52.949C48.5619 51.8565 47.6763 50.9709 46.5838 50.9709C45.4913 50.9709 44.6057 51.8565 44.6057 52.949C44.6057 54.0414 45.4913 54.9271 46.5838 54.9271Z" fill="url(#paint35_linear_216_197)"/>
<path d="M40.3648 57.1971C41.4573 57.1971 42.3429 56.3115 42.3429 55.219C42.3429 54.1266 41.4573 53.2409 40.3648 53.2409C39.2723 53.2409 38.3867 54.1266 38.3867 55.219C38.3867 56.3115 39.2723 57.1971 40.3648 57.1971Z" fill="url(#paint36_linear_216_197)"/>
<path d="M33.7447 57.0219C34.8372 57.0219 35.7228 56.1363 35.7228 55.0438C35.7228 53.9514 34.8372 53.0657 33.7447 53.0657C32.6522 53.0657 31.7666 53.9514 31.7666 55.0438C31.7666 56.1363 32.6522 57.0219 33.7447 57.0219Z" fill="url(#paint37_linear_216_197)"/>
<path d="M27.6495 54.4453C28.742 54.4453 29.6276 53.5597 29.6276 52.4672C29.6276 51.3747 28.742 50.4891 27.6495 50.4891C26.557 50.4891 25.6714 51.3747 25.6714 52.4672C25.6714 53.5597 26.557 54.4453 27.6495 54.4453Z" fill="url(#paint38_linear_216_197)"/>
<path d="M22.9271 49.8103C24.0196 49.8103 24.9052 48.9246 24.9052 47.8322C24.9052 46.7397 24.0196 45.8541 22.9271 45.8541C21.8346 45.8541 20.949 46.7397 20.949 47.8322C20.949 48.9246 21.8346 49.8103 22.9271 49.8103Z" fill="url(#paint39_linear_216_197)"/>
<path d="M20.2264 43.7664C21.3189 43.7664 22.2045 42.8808 22.2045 41.7883C22.2045 40.6959 21.3189 39.8102 20.2264 39.8102C19.1339 39.8102 18.2483 40.6959 18.2483 41.7883C18.2483 42.8808 19.1339 43.7664 20.2264 43.7664Z" fill="url(#paint40_linear_216_197)"/>
<path d="M19.9271 37.1533C21.0196 37.1533 21.9052 36.2677 21.9052 35.1752C21.9052 34.0827 21.0196 33.1971 19.9271 33.1971C18.8346 33.1971 17.949 34.0827 17.949 35.1752C17.949 36.2677 18.8346 37.1533 19.9271 37.1533Z" fill="url(#paint41_linear_216_197)"/>
<path d="M22.0731 30.8905C23.1656 30.8905 24.0512 30.0049 24.0512 28.9124C24.0512 27.82 23.1656 26.9343 22.0731 26.9343C20.9806 26.9343 20.095 27.82 20.095 28.9124C20.095 30.0049 20.9806 30.8905 22.0731 30.8905Z" fill="url(#paint42_linear_216_197)"/>
<path d="M26.3648 25.854C27.4573 25.854 28.3429 24.9684 28.3429 23.8759C28.3429 22.7835 27.4573 21.8978 26.3648 21.8978C25.2723 21.8978 24.3867 22.7835 24.3867 23.8759C24.3867 24.9684 25.2723 25.854 26.3648 25.854Z" fill="url(#paint43_linear_216_197)"/>
<path d="M32.1971 22.73C33.2896 22.73 34.1752 21.8443 34.1752 20.7518C34.1752 19.6594 33.2896 18.7737 32.1971 18.7737C31.1046 18.7737 30.219 19.6594 30.219 20.7518C30.219 21.8443 31.1046 22.73 32.1971 22.73Z" fill="url(#paint44_linear_216_197)"/>
<path d="M38.7738 21.9708C39.8662 21.9708 40.7519 21.0852 40.7519 19.9927C40.7519 18.9002 39.8662 18.0146 38.7738 18.0146C37.6813 18.0146 36.7957 18.9002 36.7957 19.9927C36.7957 21.0852 37.6813 21.9708 38.7738 21.9708Z" fill="url(#paint45_linear_216_197)"/>
<path d="M45.1751 23.6643C46.2676 23.6643 47.1532 22.7786 47.1532 21.6862C47.1532 20.5937 46.2676 19.7081 45.1751 19.7081C44.0826 19.7081 43.197 20.5937 43.197 21.6862C43.197 22.7786 44.0826 23.6643 45.1751 23.6643Z" fill="url(#paint46_linear_216_197)"/>
<path d="M50.5037 27.5913C51.5962 27.5913 52.4818 26.7057 52.4818 25.6132C52.4818 24.5207 51.5962 23.6351 50.5037 23.6351C49.4113 23.6351 48.5256 24.5207 48.5256 25.6132C48.5256 26.7057 49.4113 27.5913 50.5037 27.5913Z" fill="url(#paint47_linear_216_197)"/>
<path d="M55.8028 54.8687C56.8953 54.8687 57.7809 53.9831 57.7809 52.8906C57.7809 51.7981 56.8953 50.9125 55.8028 50.9125C54.7103 50.9125 53.8247 51.7981 53.8247 52.8906C53.8247 53.9831 54.7103 54.8687 55.8028 54.8687Z" fill="url(#paint48_linear_216_197)"/>
<path d="M51.1317 59.168C52.2242 59.168 53.1098 58.2823 53.1098 57.1898C53.1098 56.0974 52.2242 55.2117 51.1317 55.2117C50.0392 55.2117 49.1536 56.0974 49.1536 57.1898C49.1536 58.2823 50.0392 59.168 51.1317 59.168Z" fill="url(#paint49_linear_216_197)"/>
<path d="M45.4891 62.0804C46.5816 62.0804 47.4672 61.1947 47.4672 60.1022C47.4672 59.0098 46.5816 58.1241 45.4891 58.1241C44.3966 58.1241 43.511 59.0098 43.511 60.1022C43.511 61.1947 44.3966 62.0804 45.4891 62.0804Z" fill="url(#paint50_linear_216_197)"/>
<path d="M39.2777 63.3942C40.3701 63.3942 41.2558 62.5086 41.2558 61.4161C41.2558 60.3236 40.3701 59.438 39.2777 59.438C38.1852 59.438 37.2996 60.3236 37.2996 61.4161C37.2996 62.5086 38.1852 63.3942 39.2777 63.3942Z" fill="url(#paint51_linear_216_197)"/>
<path d="M32.9346 63.0147C34.0271 63.0147 34.9128 62.1291 34.9128 61.0366C34.9128 59.9441 34.0271 59.0585 32.9346 59.0585C31.8422 59.0585 30.9565 59.9441 30.9565 61.0366C30.9565 62.1291 31.8422 63.0147 32.9346 63.0147Z" fill="url(#paint52_linear_216_197)"/>
<path d="M26.9268 60.9782C28.0193 60.9782 28.9049 60.0925 28.9049 59.0001C28.9049 57.9076 28.0193 57.022 26.9268 57.022C25.8344 57.022 24.9487 57.9076 24.9487 59.0001C24.9487 60.0925 25.8344 60.9782 26.9268 60.9782Z" fill="url(#paint53_linear_216_197)"/>
<path d="M21.6644 57.4234C22.7569 57.4234 23.6425 56.5378 23.6425 55.4453C23.6425 54.3529 22.7569 53.4672 21.6644 53.4672C20.5719 53.4672 19.6863 54.3529 19.6863 55.4453C19.6863 56.5378 20.5719 57.4234 21.6644 57.4234Z" fill="url(#paint54_linear_216_197)"/>
<path d="M17.5328 52.5986C18.6253 52.5986 19.5109 51.713 19.5109 50.6205C19.5109 49.528 18.6253 48.6424 17.5328 48.6424C16.4403 48.6424 15.5547 49.528 15.5547 50.6205C15.5547 51.713 16.4403 52.5986 17.5328 52.5986Z" fill="url(#paint55_linear_216_197)"/>
<path d="M14.8248 46.8541C15.9173 46.8541 16.8029 45.9685 16.8029 44.876C16.8029 43.7835 15.9173 42.8979 14.8248 42.8979C13.7323 42.8979 12.8467 43.7835 12.8467 44.876C12.8467 45.9685 13.7323 46.8541 14.8248 46.8541Z" fill="url(#paint56_linear_216_197)"/>
<path d="M13.7301 40.6059C14.8225 40.6059 15.7082 39.7203 15.7082 38.6278C15.7082 37.5353 14.8225 36.6497 13.7301 36.6497C12.6376 36.6497 11.752 37.5353 11.752 38.6278C11.752 39.7203 12.6376 40.6059 13.7301 40.6059Z" fill="url(#paint57_linear_216_197)"/>
<path d="M14.3355 34.2847C15.428 34.2847 16.3136 33.3991 16.3136 32.3066C16.3136 31.2141 15.428 30.3285 14.3355 30.3285C13.243 30.3285 12.3574 31.2141 12.3574 32.3066C12.3574 33.3991 13.243 34.2847 14.3355 34.2847Z" fill="url(#paint58_linear_216_197)"/>
<path d="M16.5841 28.3431C17.6765 28.3431 18.5622 27.4575 18.5622 26.365C18.5622 25.2725 17.6765 24.3869 16.5841 24.3869C15.4916 24.3869 14.606 25.2725 14.606 26.365C14.606 27.4575 15.4916 28.3431 16.5841 28.3431Z" fill="url(#paint59_linear_216_197)"/>
<path d="M20.3287 23.219C21.4212 23.219 22.3068 22.3334 22.3068 21.2409C22.3068 20.1484 21.4212 19.2628 20.3287 19.2628C19.2362 19.2628 18.3506 20.1484 18.3506 21.2409C18.3506 22.3334 19.2362 23.219 20.3287 23.219Z" fill="url(#paint60_linear_216_197)"/>
<path d="M25.2921 19.2628C26.3845 19.2628 27.2702 18.3772 27.2702 17.2847C27.2702 16.1922 26.3845 15.3066 25.2921 15.3066C24.1996 15.3066 23.314 16.1922 23.314 17.2847C23.314 18.3772 24.1996 19.2628 25.2921 19.2628Z" fill="url(#paint61_linear_216_197)"/>
<path d="M31.1314 16.7592C32.2239 16.7592 33.1095 15.8735 33.1095 14.7811C33.1095 13.6886 32.2239 12.8029 31.1314 12.8029C30.0389 12.8029 29.1533 13.6886 29.1533 14.7811C29.1533 15.8735 30.0389 16.7592 31.1314 16.7592Z" fill="url(#paint62_linear_216_197)"/>
<path d="M37.4163 15.8905C38.5088 15.8905 39.3944 15.0049 39.3944 13.9124C39.3944 12.82 38.5088 11.9343 37.4163 11.9343C36.3239 11.9343 35.4382 12.82 35.4382 13.9124C35.4382 15.0049 36.3239 15.8905 37.4163 15.8905Z" fill="url(#paint63_linear_216_197)"/>
<path d="M43.7154 16.7154C44.8079 16.7154 45.6935 15.8297 45.6935 14.7373C45.6935 13.6448 44.8079 12.7592 43.7154 12.7592C42.6229 12.7592 41.7373 13.6448 41.7373 14.7373C41.7373 15.8297 42.6229 16.7154 43.7154 16.7154Z" fill="url(#paint64_linear_216_197)"/>
<path d="M49.5692 19.1825C50.6617 19.1825 51.5473 18.2969 51.5473 17.2044C51.5473 16.1119 50.6617 15.2263 49.5692 15.2263C48.4767 15.2263 47.5911 16.1119 47.5911 17.2044C47.5911 18.2969 48.4767 19.1825 49.5692 19.1825Z" fill="url(#paint65_linear_216_197)"/>
<path d="M54.5621 23.1022C55.6546 23.1022 56.5402 22.2166 56.5402 21.1241C56.5402 20.0316 55.6546 19.146 54.5621 19.146C53.4696 19.146 52.584 20.0316 52.584 21.1241C52.584 22.2166 53.4696 23.1022 54.5621 23.1022Z" fill="url(#paint66_linear_216_197)"/>
<path d="M59.4893 59.7446C60.5818 59.7446 61.4674 58.859 61.4674 57.7665C61.4674 56.674 60.5818 55.7884 59.4893 55.7884C58.3969 55.7884 57.5112 56.674 57.5112 57.7665C57.5112 58.859 58.3969 59.7446 59.4893 59.7446Z" fill="url(#paint67_linear_216_197)"/>
<path d="M54.4454 64.1534C55.5379 64.1534 56.4235 63.2677 56.4235 62.1752C56.4235 61.0828 55.5379 60.1971 54.4454 60.1971C53.3529 60.1971 52.4673 61.0828 52.4673 62.1752C52.4673 63.2677 53.3529 64.1534 54.4454 64.1534Z" fill="url(#paint68_linear_216_197)"/>
<path d="M48.5401 67.3212C49.6326 67.3212 50.5182 66.4356 50.5182 65.3431C50.5182 64.2507 49.6326 63.365 48.5401 63.365C47.4476 63.365 46.562 64.2507 46.562 65.3431C46.562 66.4356 47.4476 67.3212 48.5401 67.3212Z" fill="url(#paint69_linear_216_197)"/>
<path d="M42.0802 69.095C43.1726 69.095 44.0583 68.2093 44.0583 67.1169C44.0583 66.0244 43.1726 65.1387 42.0802 65.1387C40.9877 65.1387 40.1021 66.0244 40.1021 67.1169C40.1021 68.2093 40.9877 69.095 42.0802 69.095Z" fill="url(#paint70_linear_216_197)"/>
<path d="M35.387 69.3723C36.4795 69.3723 37.3651 68.4867 37.3651 67.3942C37.3651 66.3018 36.4795 65.4161 35.387 65.4161C34.2946 65.4161 33.4089 66.3018 33.4089 67.3942C33.4089 68.4867 34.2946 69.3723 35.387 69.3723Z" fill="url(#paint71_linear_216_197)"/>
<path d="M28.8028 68.1534C29.8953 68.1534 30.7809 67.2678 30.7809 66.1753C30.7809 65.0828 29.8953 64.1972 28.8028 64.1972C27.7103 64.1972 26.8247 65.0828 26.8247 66.1753C26.8247 67.2678 27.7103 68.1534 28.8028 68.1534Z" fill="url(#paint72_linear_216_197)"/>
<path d="M22.6571 65.4891C23.7495 65.4891 24.6352 64.6035 24.6352 63.511C24.6352 62.4186 23.7495 61.5329 22.6571 61.5329C21.5646 61.5329 20.679 62.4186 20.679 63.511C20.679 64.6035 21.5646 65.4891 22.6571 65.4891Z" fill="url(#paint73_linear_216_197)"/>
<path d="M17.2628 61.511C18.3552 61.511 19.2409 60.6254 19.2409 59.5329C19.2409 58.4404 18.3552 57.5548 17.2628 57.5548C16.1703 57.5548 15.2847 58.4404 15.2847 59.5329C15.2847 60.6254 16.1703 61.511 17.2628 61.511Z" fill="url(#paint74_linear_216_197)"/>
<path d="M12.8905 56.438C13.9829 56.438 14.8686 55.5524 14.8686 54.4599C14.8686 53.3675 13.9829 52.4818 12.8905 52.4818C11.798 52.4818 10.9124 53.3675 10.9124 54.4599C10.9124 55.5524 11.798 56.438 12.8905 56.438Z" fill="url(#paint75_linear_216_197)"/>
<path d="M9.76643 50.511C10.8589 50.511 11.7445 49.6254 11.7445 48.5329C11.7445 47.4404 10.8589 46.5548 9.76643 46.5548C8.67396 46.5548 7.78833 47.4404 7.78833 48.5329C7.78833 49.6254 8.67396 50.511 9.76643 50.511Z" fill="url(#paint76_linear_216_197)"/>
<path d="M8.04378 44.0365C9.13626 44.0365 10.0219 43.1509 10.0219 42.0584C10.0219 40.966 9.13626 40.0803 8.04378 40.0803C6.9513 40.0803 6.06567 40.966 6.06567 42.0584C6.06567 43.1509 6.9513 44.0365 8.04378 44.0365Z" fill="url(#paint77_linear_216_197)"/>
<path d="M7.8177 37.3431C8.91018 37.3431 9.79581 36.4575 9.79581 35.365C9.79581 34.2725 8.91018 33.3869 7.8177 33.3869C6.72523 33.3869 5.8396 34.2725 5.8396 35.365C5.8396 36.4575 6.72523 37.3431 7.8177 37.3431Z" fill="url(#paint78_linear_216_197)"/>
<path d="M9.08772 30.7665C10.1802 30.7665 11.0658 29.8808 11.0658 28.7884C11.0658 27.6959 10.1802 26.8103 9.08772 26.8103C7.99525 26.8103 7.10962 27.6959 7.10962 28.7884C7.10962 29.8808 7.99525 30.7665 9.08772 30.7665Z" fill="url(#paint79_linear_216_197)"/>
<path d="M11.8028 24.6351C12.8953 24.6351 13.7809 23.7494 13.7809 22.657C13.7809 21.5645 12.8953 20.6789 11.8028 20.6789C10.7103 20.6789 9.82471 21.5645 9.82471 22.657C9.82471 23.7494 10.7103 24.6351 11.8028 24.6351Z" fill="url(#paint80_linear_216_197)"/>
<path d="M15.8101 19.2774C16.9026 19.2774 17.7882 18.3918 17.7882 17.2993C17.7882 16.2068 16.9026 15.3212 15.8101 15.3212C14.7177 15.3212 13.832 16.2068 13.832 17.2993C13.832 18.3918 14.7177 19.2774 15.8101 19.2774Z" fill="url(#paint81_linear_216_197)"/>
<path d="M20.9198 14.9416C22.0122 14.9416 22.8979 14.056 22.8979 12.9635C22.8979 11.8711 22.0122 10.9854 20.9198 10.9854C19.8273 10.9854 18.9417 11.8711 18.9417 12.9635C18.9417 14.056 19.8273 14.9416 20.9198 14.9416Z" fill="url(#paint82_linear_216_197)"/>
<path d="M26.8687 11.8613C27.9612 11.8613 28.8468 10.9757 28.8468 9.88324C28.8468 8.79076 27.9612 7.90514 26.8687 7.90514C25.7763 7.90514 24.8906 8.79076 24.8906 9.88324C24.8906 10.9757 25.7763 11.8613 26.8687 11.8613Z" fill="url(#paint83_linear_216_197)"/>
<path d="M33.3577 10.1898C34.4502 10.1898 35.3358 9.30416 35.3358 8.21169C35.3358 7.11921 34.4502 6.23358 33.3577 6.23358C32.2653 6.23358 31.3796 7.11921 31.3796 8.21169C31.3796 9.30416 32.2653 10.1898 33.3577 10.1898Z" fill="url(#paint84_linear_216_197)"/>
<path d="M40.0511 10.0073C41.1436 10.0073 42.0292 9.12168 42.0292 8.02921C42.0292 6.93673 41.1436 6.0511 40.0511 6.0511C38.9586 6.0511 38.073 6.93673 38.073 8.02921C38.073 9.12168 38.9586 10.0073 40.0511 10.0073Z" fill="url(#paint85_linear_216_197)"/>
<path d="M46.6204 11.3358C47.7129 11.3358 48.5985 10.4502 48.5985 9.35768C48.5985 8.26521 47.7129 7.37958 46.6204 7.37958C45.528 7.37958 44.6423 8.26521 44.6423 9.35768C44.6423 10.4502 45.528 11.3358 46.6204 11.3358Z" fill="url(#paint86_linear_216_197)"/>
<path d="M52.7298 14.0876C53.8223 14.0876 54.7079 13.202 54.7079 12.1095C54.7079 11.017 53.8223 10.1314 52.7298 10.1314C51.6373 10.1314 50.7517 11.017 50.7517 12.1095C50.7517 13.202 51.6373 14.0876 52.7298 14.0876Z" fill="url(#paint87_linear_216_197)"/>
<path d="M58.0655 18.1387C59.158 18.1387 60.0436 17.2531 60.0436 16.1606C60.0436 15.0681 59.158 14.1825 58.0655 14.1825C56.973 14.1825 56.0874 15.0681 56.0874 16.1606C56.0874 17.2531 56.973 18.1387 58.0655 18.1387Z" fill="url(#paint88_linear_216_197)"/>
<path d="M37.8467 48.2044C38.0725 48.2044 38.2555 48.0214 38.2555 47.7957C38.2555 47.5699 38.0725 47.3869 37.8467 47.3869C37.621 47.3869 37.438 47.5699 37.438 47.7957C37.438 48.0214 37.621 48.2044 37.8467 48.2044Z" fill="url(#paint89_linear_216_197)"/>
<path d="M30.606 45.4891C30.8318 45.4891 31.0148 45.3061 31.0148 45.0803C31.0148 44.8546 30.8318 44.6716 30.606 44.6716C30.3803 44.6716 30.1973 44.8546 30.1973 45.0803C30.1973 45.3061 30.3803 45.4891 30.606 45.4891Z" fill="url(#paint90_linear_216_197)"/>
<path d="M27.4014 38.4526C27.6272 38.4526 27.8102 38.2696 27.8102 38.0438C27.8102 37.8181 27.6272 37.6351 27.4014 37.6351C27.1757 37.6351 26.9927 37.8181 26.9927 38.0438C26.9927 38.2696 27.1757 38.4526 27.4014 38.4526Z" fill="url(#paint91_linear_216_197)"/>
<path d="M30.1168 31.2117C30.3425 31.2117 30.5255 31.0287 30.5255 30.803C30.5255 30.5772 30.3425 30.3942 30.1168 30.3942C29.891 30.3942 29.708 30.5772 29.708 30.803C29.708 31.0287 29.891 31.2117 30.1168 31.2117Z" fill="url(#paint92_linear_216_197)"/>
<path d="M37.1531 28.0073C37.3789 28.0073 37.5619 27.8243 37.5619 27.5986C37.5619 27.3728 37.3789 27.1898 37.1531 27.1898C36.9274 27.1898 36.7444 27.3728 36.7444 27.5986C36.7444 27.8243 36.9274 28.0073 37.1531 28.0073Z" fill="url(#paint93_linear_216_197)"/>
<path d="M44.3941 30.7227C44.6199 30.7227 44.8029 30.5396 44.8029 30.3139C44.8029 30.0881 44.6199 29.9051 44.3941 29.9051C44.1684 29.9051 43.9854 30.0881 43.9854 30.3139C43.9854 30.5396 44.1684 30.7227 44.3941 30.7227Z" fill="url(#paint94_linear_216_197)"/>
<path d="M47.5911 37.7592C47.8169 37.7592 47.9999 37.5761 47.9999 37.3504C47.9999 37.1246 47.8169 36.9416 47.5911 36.9416C47.3654 36.9416 47.1824 37.1246 47.1824 37.3504C47.1824 37.5761 47.3654 37.7592 47.5911 37.7592Z" fill="url(#paint95_linear_216_197)"/>
<path d="M44.8831 45C45.1089 45 45.2919 44.817 45.2919 44.5913C45.2919 44.3655 45.1089 44.1825 44.8831 44.1825C44.6574 44.1825 44.4744 44.3655 44.4744 44.5913C44.4744 44.817 44.6574 45 44.8831 45Z" fill="url(#paint96_linear_216_197)"/>
<path d="M37.6424 42.2847C37.8682 42.2847 38.0512 42.1017 38.0512 41.876C38.0512 41.6502 37.8682 41.4672 37.6424 41.4672C37.4167 41.4672 37.2336 41.6502 37.2336 41.876C37.2336 42.1017 37.4167 42.2847 37.6424 42.2847Z" fill="url(#paint97_linear_216_197)"/>
<path d="M33.8104 36.1387C34.0361 36.1387 34.2191 35.9557 34.2191 35.73C34.2191 35.5042 34.0361 35.3212 33.8104 35.3212C33.5846 35.3212 33.4016 35.5042 33.4016 35.73C33.4016 35.9557 33.5846 36.1387 33.8104 36.1387Z" fill="url(#paint98_linear_216_197)"/>
<path d="M41.044 35.8905C41.2698 35.8905 41.4528 35.7075 41.4528 35.4818C41.4528 35.256 41.2698 35.073 41.044 35.073C40.8183 35.073 40.6353 35.256 40.6353 35.4818C40.6353 35.7075 40.8183 35.8905 41.044 35.8905Z" fill="url(#paint99_linear_216_197)"/>
<defs>
<linearGradient id="paint0_linear_216_197" x1="53.6571" y1="-1.28468" x2="57.3359" y2="74.7738" gradientUnits="userSpaceOnUse">
<stop stop-color="#20C4F4"/>
<stop offset="1" stop-color="#51BF9D"/>
</linearGradient>
<linearGradient id="paint1_linear_216_197" x1="53.5036" y1="-1.27736" x2="57.1824" y2="74.7811" gradientUnits="userSpaceOnUse">
<stop stop-color="#20C4F4"/>
<stop offset="1" stop-color="#51BF9D"/>
</linearGradient>
<linearGradient id="paint2_linear_216_197" x1="35.1314" y1="-0.39435" x2="38.8103" y2="75.6716" gradientUnits="userSpaceOnUse">
<stop stop-color="#20C4F4"/>
<stop offset="1" stop-color="#51BF9D"/>
</linearGradient>
<linearGradient id="paint3_linear_216_197" x1="24.657" y1="0.1166" x2="28.3359" y2="76.1753" gradientUnits="userSpaceOnUse">
<stop stop-color="#20C4F4"/>
<stop offset="1" stop-color="#51BF9D"/>
</linearGradient>
<linearGradient id="paint4_linear_216_197" x1="15.0728" y1="0.576949" x2="18.7516" y2="76.6424" gradientUnits="userSpaceOnUse">
<stop stop-color="#20C4F4"/>
<stop offset="1" stop-color="#51BF9D"/>
</linearGradient>
<linearGradient id="paint5_linear_216_197" x1="7.15317" y1="0.963351" x2="10.832" y2="77.0293" gradientUnits="userSpaceOnUse">
<stop stop-color="#20C4F4"/>
<stop offset="1" stop-color="#51BF9D"/>
</linearGradient>
<linearGradient id="paint6_linear_216_197" x1="1.5401" y1="1.23381" x2="5.2262" y2="77.2993" gradientUnits="userSpaceOnUse">
<stop stop-color="#20C4F4"/>
<stop offset="1" stop-color="#51BF9D"/>
</linearGradient>
<linearGradient id="paint7_linear_216_197" x1="-1.29949" y1="1.3723" x2="2.37934" y2="77.438" gradientUnits="userSpaceOnUse">
<stop stop-color="#20C4F4"/>
<stop offset="1" stop-color="#51BF9D"/>
</linearGradient>
<linearGradient id="paint8_linear_216_197" x1="-1.15329" y1="1.36498" x2="2.52554" y2="77.4307" gradientUnits="userSpaceOnUse">
<stop stop-color="#20C4F4"/>
<stop offset="1" stop-color="#51BF9D"/>
</linearGradient>
<linearGradient id="paint9_linear_216_197" x1="1.97835" y1="1.21163" x2="5.6572" y2="77.2776" gradientUnits="userSpaceOnUse">
<stop stop-color="#20C4F4"/>
<stop offset="1" stop-color="#51BF9D"/>
</linearGradient>
<linearGradient id="paint10_linear_216_197" x1="7.83942" y1="0.926998" x2="11.5183" y2="76.9928" gradientUnits="userSpaceOnUse">
<stop stop-color="#20C4F4"/>
<stop offset="1" stop-color="#51BF9D"/>
</linearGradient>
<linearGradient id="paint11_linear_216_197" x1="15.9489" y1="0.540145" x2="19.6277" y2="76.5986" gradientUnits="userSpaceOnUse">
<stop stop-color="#20C4F4"/>
<stop offset="1" stop-color="#51BF9D"/>
</linearGradient>
<linearGradient id="paint12_linear_216_197" x1="25.6569" y1="0.0656846" x2="29.3358" y2="76.1315" gradientUnits="userSpaceOnUse">
<stop stop-color="#20C4F4"/>
<stop offset="1" stop-color="#51BF9D"/>
</linearGradient>
<linearGradient id="paint13_linear_216_197" x1="36.1753" y1="-0.437957" x2="39.8614" y2="75.6205" gradientUnits="userSpaceOnUse">
<stop stop-color="#20C4F4"/>
<stop offset="1" stop-color="#51BF9D"/>
</linearGradient>
<linearGradient id="paint14_linear_216_197" x1="46.657" y1="-0.948918" x2="50.3358" y2="75.1169" gradientUnits="userSpaceOnUse">
<stop stop-color="#20C4F4"/>
<stop offset="1" stop-color="#51BF9D"/>
</linearGradient>
<linearGradient id="paint15_linear_216_197" x1="56.241" y1="-1.40876" x2="59.9198" y2="74.6497" gradientUnits="userSpaceOnUse">
<stop stop-color="#20C4F4"/>
<stop offset="1" stop-color="#51BF9D"/>
</linearGradient>
<linearGradient id="paint16_linear_216_197" x1="64.1608" y1="-1.79564" x2="67.8397" y2="74.2702" gradientUnits="userSpaceOnUse">
<stop stop-color="#20C4F4"/>
<stop offset="1" stop-color="#51BF9D"/>
</linearGradient>
<linearGradient id="paint17_linear_216_197" x1="69.7666" y1="-2.06568" x2="73.4454" y2="73.9927" gradientUnits="userSpaceOnUse">
<stop stop-color="#20C4F4"/>
<stop offset="1" stop-color="#51BF9D"/>
</linearGradient>
<linearGradient id="paint18_linear_216_197" x1="72.6132" y1="-2.20434" x2="76.2921" y2="73.8614" gradientUnits="userSpaceOnUse">
<stop stop-color="#20C4F4"/>
<stop offset="1" stop-color="#51BF9D"/>
</linearGradient>
<linearGradient id="paint19_linear_216_197" x1="72.4597" y1="-2.1972" x2="76.1459" y2="73.8688" gradientUnits="userSpaceOnUse">
<stop stop-color="#20C4F4"/>
<stop offset="1" stop-color="#51BF9D"/>
</linearGradient>
<linearGradient id="paint20_linear_216_197" x1="69.3357" y1="-2.04394" x2="73.0145" y2="74.0147" gradientUnits="userSpaceOnUse">
<stop stop-color="#20C4F4"/>
<stop offset="1" stop-color="#51BF9D"/>
</linearGradient>
<linearGradient id="paint21_linear_216_197" x1="63.4746" y1="-1.75929" x2="67.1534" y2="74.2994" gradientUnits="userSpaceOnUse">
<stop stop-color="#20C4F4"/>
<stop offset="1" stop-color="#51BF9D"/>
</linearGradient>
<linearGradient id="paint22_linear_216_197" x1="55.3578" y1="-1.37245" x2="59.044" y2="74.6935" gradientUnits="userSpaceOnUse">
<stop stop-color="#20C4F4"/>
<stop offset="1" stop-color="#51BF9D"/>
</linearGradient>
<linearGradient id="paint23_linear_216_197" x1="45.6498" y1="-0.897999" x2="49.3286" y2="75.1607" gradientUnits="userSpaceOnUse">
<stop stop-color="#20C4F4"/>
<stop offset="1" stop-color="#51BF9D"/>
</linearGradient>
<linearGradient id="paint24_linear_216_197" x1="61.1535" y1="-1.64963" x2="64.8323" y2="74.4162" gradientUnits="userSpaceOnUse">
<stop stop-color="#20C4F4"/>
<stop offset="1" stop-color="#51BF9D"/>
</linearGradient>
<linearGradient id="paint25_linear_216_197" x1="63.9636" y1="-1.78838" x2="67.6424" y2="74.2775" gradientUnits="userSpaceOnUse">
<stop stop-color="#20C4F4"/>
<stop offset="1" stop-color="#51BF9D"/>
</linearGradient>
<linearGradient id="paint26_linear_216_197" x1="65.3502" y1="-1.85409" x2="69.0363" y2="74.2118" gradientUnits="userSpaceOnUse">
<stop stop-color="#20C4F4"/>
<stop offset="1" stop-color="#51BF9D"/>
</linearGradient>
<linearGradient id="paint27_linear_216_197" x1="65.2556" y1="-1.84681" x2="68.9344" y2="74.2118" gradientUnits="userSpaceOnUse">
<stop stop-color="#20C4F4"/>
<stop offset="1" stop-color="#51BF9D"/>
</linearGradient>
<linearGradient id="paint28_linear_216_197" x1="63.6717" y1="-1.77383" x2="67.3505" y2="74.2921" gradientUnits="userSpaceOnUse">
<stop stop-color="#20C4F4"/>
<stop offset="1" stop-color="#51BF9D"/>
</linearGradient>
<linearGradient id="paint29_linear_216_197" x1="60.6861" y1="-1.62767" x2="64.3649" y2="74.438" gradientUnits="userSpaceOnUse">
<stop stop-color="#20C4F4"/>
<stop offset="1" stop-color="#51BF9D"/>
</linearGradient>
<linearGradient id="paint30_linear_216_197" x1="58.1606" y1="-1.50363" x2="61.8394" y2="74.5548" gradientUnits="userSpaceOnUse">
<stop stop-color="#20C4F4"/>
<stop offset="1" stop-color="#51BF9D"/>
</linearGradient>
<linearGradient id="paint31_linear_216_197" x1="59.7591" y1="-1.5839" x2="63.438" y2="74.4818" gradientUnits="userSpaceOnUse">
<stop stop-color="#20C4F4"/>
<stop offset="1" stop-color="#51BF9D"/>
</linearGradient>
<linearGradient id="paint32_linear_216_197" x1="59.5693" y1="-1.5766" x2="63.2554" y2="74.4891" gradientUnits="userSpaceOnUse">
<stop stop-color="#20C4F4"/>
<stop offset="1" stop-color="#51BF9D"/>
</linearGradient>
<linearGradient id="paint33_linear_216_197" x1="57.6133" y1="-1.48154" x2="61.2921" y2="74.5839" gradientUnits="userSpaceOnUse">
<stop stop-color="#20C4F4"/>
<stop offset="1" stop-color="#51BF9D"/>
</linearGradient>
<linearGradient id="paint34_linear_216_197" x1="49.1387" y1="-1.06567" x2="52.8175" y2="74.9928" gradientUnits="userSpaceOnUse">
<stop stop-color="#20C4F4"/>
<stop offset="1" stop-color="#51BF9D"/>
</linearGradient>
<linearGradient id="paint35_linear_216_197" x1="43.978" y1="-0.817506" x2="47.6641" y2="75.2409" gradientUnits="userSpaceOnUse">
<stop stop-color="#20C4F4"/>
<stop offset="1" stop-color="#51BF9D"/>
</linearGradient>
<linearGradient id="paint36_linear_216_197" x1="37.6641" y1="-0.510932" x2="41.3429" y2="75.5475" gradientUnits="userSpaceOnUse">
<stop stop-color="#20C4F4"/>
<stop offset="1" stop-color="#51BF9D"/>
</linearGradient>
<linearGradient id="paint37_linear_216_197" x1="31.0732" y1="-0.197155" x2="34.752" y2="75.8687" gradientUnits="userSpaceOnUse">
<stop stop-color="#20C4F4"/>
<stop offset="1" stop-color="#51BF9D"/>
</linearGradient>
<linearGradient id="paint38_linear_216_197" x1="25.1166" y1="0.094908" x2="28.7955" y2="76.1534" gradientUnits="userSpaceOnUse">
<stop stop-color="#20C4F4"/>
<stop offset="1" stop-color="#51BF9D"/>
</linearGradient>
<linearGradient id="paint39_linear_216_197" x1="20.6278" y1="0.313886" x2="24.3066" y2="76.3723" gradientUnits="userSpaceOnUse">
<stop stop-color="#20C4F4"/>
<stop offset="1" stop-color="#51BF9D"/>
</linearGradient>
<linearGradient id="paint40_linear_216_197" x1="18.2264" y1="0.430651" x2="21.9052" y2="76.4891" gradientUnits="userSpaceOnUse">
<stop stop-color="#20C4F4"/>
<stop offset="1" stop-color="#51BF9D"/>
</linearGradient>
<linearGradient id="paint41_linear_216_197" x1="18.2482" y1="0.423341" x2="21.9271" y2="76.4891" gradientUnits="userSpaceOnUse">
<stop stop-color="#20C4F4"/>
<stop offset="1" stop-color="#51BF9D"/>
</linearGradient>
<linearGradient id="paint42_linear_216_197" x1="20.6862" y1="0.306567" x2="24.365" y2="76.3723" gradientUnits="userSpaceOnUse">
<stop stop-color="#20C4F4"/>
<stop offset="1" stop-color="#51BF9D"/>
</linearGradient>
<linearGradient id="paint43_linear_216_197" x1="25.2115" y1="0.0875899" x2="28.8904" y2="76.1533" gradientUnits="userSpaceOnUse">
<stop stop-color="#20C4F4"/>
<stop offset="1" stop-color="#51BF9D"/>
</linearGradient>
<linearGradient id="paint44_linear_216_197" x1="31.1825" y1="-0.197081" x2="34.8686" y2="75.8614" gradientUnits="userSpaceOnUse">
<stop stop-color="#20C4F4"/>
<stop offset="1" stop-color="#51BF9D"/>
</linearGradient>
<linearGradient id="paint45_linear_216_197" x1="37.7811" y1="-0.518249" x2="41.4599" y2="75.5402" gradientUnits="userSpaceOnUse">
<stop stop-color="#20C4F4"/>
<stop offset="1" stop-color="#51BF9D"/>
</linearGradient>
<linearGradient id="paint46_linear_216_197" x1="44.0802" y1="-0.82481" x2="47.7664" y2="75.2409" gradientUnits="userSpaceOnUse">
<stop stop-color="#20C4F4"/>
<stop offset="1" stop-color="#51BF9D"/>
</linearGradient>
<linearGradient id="paint47_linear_216_197" x1="49.2118" y1="-1.07298" x2="52.8906" y2="74.9928" gradientUnits="userSpaceOnUse">
<stop stop-color="#20C4F4"/>
<stop offset="1" stop-color="#51BF9D"/>
</linearGradient>
<linearGradient id="paint48_linear_216_197" x1="53.1824" y1="-1.26275" x2="56.8612" y2="74.7957" gradientUnits="userSpaceOnUse">
<stop stop-color="#20C4F4"/>
<stop offset="1" stop-color="#51BF9D"/>
</linearGradient>
<linearGradient id="paint49_linear_216_197" x1="48.3141" y1="-1.02918" x2="51.993" y2="75.0366" gradientUnits="userSpaceOnUse">
<stop stop-color="#20C4F4"/>
<stop offset="1" stop-color="#51BF9D"/>
</linearGradient>
<linearGradient id="paint50_linear_216_197" x1="42.5402" y1="-0.751894" x2="46.2263" y2="75.314" gradientUnits="userSpaceOnUse">
<stop stop-color="#20C4F4"/>
<stop offset="1" stop-color="#51BF9D"/>
</linearGradient>
<linearGradient id="paint51_linear_216_197" x1="36.285" y1="-0.445241" x2="39.9638" y2="75.6132" gradientUnits="userSpaceOnUse">
<stop stop-color="#20C4F4"/>
<stop offset="1" stop-color="#51BF9D"/>
</linearGradient>
<linearGradient id="paint52_linear_216_197" x1="29.9784" y1="-0.138653" x2="33.6573" y2="75.9198" gradientUnits="userSpaceOnUse">
<stop stop-color="#20C4F4"/>
<stop offset="1" stop-color="#51BF9D"/>
</linearGradient>
<linearGradient id="paint53_linear_216_197" x1="24.0728" y1="0.146001" x2="27.759" y2="76.2045" gradientUnits="userSpaceOnUse">
<stop stop-color="#20C4F4"/>
<stop offset="1" stop-color="#51BF9D"/>
</linearGradient>
<linearGradient id="paint54_linear_216_197" x1="19.0001" y1="0.386888" x2="22.679" y2="76.4526" gradientUnits="userSpaceOnUse">
<stop stop-color="#20C4F4"/>
<stop offset="1" stop-color="#51BF9D"/>
</linearGradient>
<linearGradient id="paint55_linear_216_197" x1="15.1094" y1="0.576662" x2="18.7956" y2="76.6424" gradientUnits="userSpaceOnUse">
<stop stop-color="#20C4F4"/>
<stop offset="1" stop-color="#51BF9D"/>
</linearGradient>
<linearGradient id="paint56_linear_216_197" x1="12.6861" y1="0.693429" x2="16.3649" y2="76.7592" gradientUnits="userSpaceOnUse">
<stop stop-color="#20C4F4"/>
<stop offset="1" stop-color="#51BF9D"/>
</linearGradient>
<linearGradient id="paint57_linear_216_197" x1="11.8979" y1="0.737229" x2="15.5768" y2="76.7957" gradientUnits="userSpaceOnUse">
<stop stop-color="#20C4F4"/>
<stop offset="1" stop-color="#51BF9D"/>
</linearGradient>
<linearGradient id="paint58_linear_216_197" x1="12.8027" y1="0.693428" x2="16.4815" y2="76.7519" gradientUnits="userSpaceOnUse">
<stop stop-color="#20C4F4"/>
<stop offset="1" stop-color="#51BF9D"/>
</linearGradient>
<linearGradient id="paint59_linear_216_197" x1="15.3359" y1="0.569334" x2="19.0147" y2="76.6278" gradientUnits="userSpaceOnUse">
<stop stop-color="#20C4F4"/>
<stop offset="1" stop-color="#51BF9D"/>
</linearGradient>
<linearGradient id="paint60_linear_216_197" x1="19.3214" y1="0.372269" x2="23.0002" y2="76.4381" gradientUnits="userSpaceOnUse">
<stop stop-color="#20C4F4"/>
<stop offset="1" stop-color="#51BF9D"/>
</linearGradient>
<linearGradient id="paint61_linear_216_197" x1="24.4673" y1="0.124095" x2="28.1461" y2="76.1899" gradientUnits="userSpaceOnUse">
<stop stop-color="#20C4F4"/>
<stop offset="1" stop-color="#51BF9D"/>
</linearGradient>
<linearGradient id="paint62_linear_216_197" x1="30.4088" y1="-0.160565" x2="34.0876" y2="75.8979" gradientUnits="userSpaceOnUse">
<stop stop-color="#20C4F4"/>
<stop offset="1" stop-color="#51BF9D"/>
</linearGradient>
<linearGradient id="paint63_linear_216_197" x1="36.7229" y1="-0.467148" x2="40.4017" y2="75.5913" gradientUnits="userSpaceOnUse">
<stop stop-color="#20C4F4"/>
<stop offset="1" stop-color="#51BF9D"/>
</linearGradient>
<linearGradient id="paint64_linear_216_197" x1="42.9636" y1="-0.766407" x2="46.6424" y2="75.2921" gradientUnits="userSpaceOnUse">
<stop stop-color="#20C4F4"/>
<stop offset="1" stop-color="#51BF9D"/>
</linearGradient>
<linearGradient id="paint65_linear_216_197" x1="48.686" y1="-1.04379" x2="52.3648" y2="75.0147" gradientUnits="userSpaceOnUse">
<stop stop-color="#20C4F4"/>
<stop offset="1" stop-color="#51BF9D"/>
</linearGradient>
<linearGradient id="paint66_linear_216_197" x1="53.4745" y1="-1.27737" x2="57.1533" y2="74.7811" gradientUnits="userSpaceOnUse">
<stop stop-color="#20C4F4"/>
<stop offset="1" stop-color="#51BF9D"/>
</linearGradient>
<linearGradient id="paint67_linear_216_197" x1="56.628" y1="-1.43065" x2="60.3069" y2="74.6351" gradientUnits="userSpaceOnUse">
<stop stop-color="#20C4F4"/>
<stop offset="1" stop-color="#51BF9D"/>
</linearGradient>
<linearGradient id="paint68_linear_216_197" x1="51.3797" y1="-1.17517" x2="55.0585" y2="74.8833" gradientUnits="userSpaceOnUse">
<stop stop-color="#20C4F4"/>
<stop offset="1" stop-color="#51BF9D"/>
</linearGradient>
<linearGradient id="paint69_linear_216_197" x1="45.3357" y1="-0.883279" x2="49.0219" y2="75.1753" gradientUnits="userSpaceOnUse">
<stop stop-color="#20C4F4"/>
<stop offset="1" stop-color="#51BF9D"/>
</linearGradient>
<linearGradient id="paint70_linear_216_197" x1="38.8101" y1="-0.569424" x2="42.4889" y2="75.4964" gradientUnits="userSpaceOnUse">
<stop stop-color="#20C4F4"/>
<stop offset="1" stop-color="#51BF9D"/>
</linearGradient>
<linearGradient id="paint71_linear_216_197" x1="32.117" y1="-0.248149" x2="35.7958" y2="75.8176" gradientUnits="userSpaceOnUse">
<stop stop-color="#20C4F4"/>
<stop offset="1" stop-color="#51BF9D"/>
</linearGradient>
<linearGradient id="paint72_linear_216_197" x1="25.6057" y1="0.0729497" x2="29.2846" y2="76.1315" gradientUnits="userSpaceOnUse">
<stop stop-color="#20C4F4"/>
<stop offset="1" stop-color="#51BF9D"/>
</linearGradient>
<linearGradient id="paint73_linear_216_197" x1="19.5987" y1="0.357696" x2="23.2848" y2="76.4235" gradientUnits="userSpaceOnUse">
<stop stop-color="#20C4F4"/>
<stop offset="1" stop-color="#51BF9D"/>
</linearGradient>
<linearGradient id="paint74_linear_216_197" x1="14.4088" y1="0.61316" x2="18.0949" y2="76.6716" gradientUnits="userSpaceOnUse">
<stop stop-color="#20C4F4"/>
<stop offset="1" stop-color="#51BF9D"/>
</linearGradient>
<linearGradient id="paint75_linear_216_197" x1="10.2992" y1="0.810253" x2="13.978" y2="76.876" gradientUnits="userSpaceOnUse">
<stop stop-color="#20C4F4"/>
<stop offset="1" stop-color="#51BF9D"/>
</linearGradient>
<linearGradient id="paint76_linear_216_197" x1="7.46716" y1="0.948918" x2="11.146" y2="77.0074" gradientUnits="userSpaceOnUse">
<stop stop-color="#20C4F4"/>
<stop offset="1" stop-color="#51BF9D"/>
</linearGradient>
<linearGradient id="paint77_linear_216_197" x1="6.05838" y1="1.01459" x2="9.73722" y2="77.0804" gradientUnits="userSpaceOnUse">
<stop stop-color="#20C4F4"/>
<stop offset="1" stop-color="#51BF9D"/>
</linearGradient>
<linearGradient id="paint78_linear_216_197" x1="6.15347" y1="1.01463" x2="9.8323" y2="77.0731" gradientUnits="userSpaceOnUse">
<stop stop-color="#20C4F4"/>
<stop offset="1" stop-color="#51BF9D"/>
</linearGradient>
<linearGradient id="paint79_linear_216_197" x1="7.74466" y1="0.934307" x2="11.4235" y2="77.0001" gradientUnits="userSpaceOnUse">
<stop stop-color="#20C4F4"/>
<stop offset="1" stop-color="#51BF9D"/>
</linearGradient>
<linearGradient id="paint80_linear_216_197" x1="10.7444" y1="0.78833" x2="14.4233" y2="76.8541" gradientUnits="userSpaceOnUse">
<stop stop-color="#20C4F4"/>
<stop offset="1" stop-color="#51BF9D"/>
</linearGradient>
<linearGradient id="paint81_linear_216_197" x1="14.9999" y1="0.583955" x2="18.686" y2="76.6424" gradientUnits="userSpaceOnUse">
<stop stop-color="#20C4F4"/>
<stop offset="1" stop-color="#51BF9D"/>
</linearGradient>
<linearGradient id="paint82_linear_216_197" x1="20.3066" y1="0.328483" x2="23.9927" y2="76.3869" gradientUnits="userSpaceOnUse">
<stop stop-color="#20C4F4"/>
<stop offset="1" stop-color="#51BF9D"/>
</linearGradient>
<linearGradient id="paint83_linear_216_197" x1="26.3943" y1="0.0292143" x2="30.0731" y2="76.095" gradientUnits="userSpaceOnUse">
<stop stop-color="#20C4F4"/>
<stop offset="1" stop-color="#51BF9D"/>
</linearGradient>
<linearGradient id="paint84_linear_216_197" x1="32.949" y1="-0.284674" x2="36.6278" y2="75.7811" gradientUnits="userSpaceOnUse">
<stop stop-color="#20C4F4"/>
<stop offset="1" stop-color="#51BF9D"/>
</linearGradient>
<linearGradient id="paint85_linear_216_197" x1="39.635" y1="-0.60584" x2="43.3139" y2="75.4526" gradientUnits="userSpaceOnUse">
<stop stop-color="#20C4F4"/>
<stop offset="1" stop-color="#51BF9D"/>
</linearGradient>
<linearGradient id="paint86_linear_216_197" x1="46.1241" y1="-0.919702" x2="49.8029" y2="75.1388" gradientUnits="userSpaceOnUse">
<stop stop-color="#20C4F4"/>
<stop offset="1" stop-color="#51BF9D"/>
</linearGradient>
<linearGradient id="paint87_linear_216_197" x1="52.0802" y1="-1.21168" x2="55.7663" y2="74.8541" gradientUnits="userSpaceOnUse">
<stop stop-color="#20C4F4"/>
<stop offset="1" stop-color="#51BF9D"/>
</linearGradient>
<linearGradient id="paint88_linear_216_197" x1="57.2115" y1="-1.45984" x2="60.8903" y2="74.6059" gradientUnits="userSpaceOnUse">
<stop stop-color="#20C4F4"/>
<stop offset="1" stop-color="#51BF9D"/>
</linearGradient>
<linearGradient id="paint89_linear_216_197" x1="35.511" y1="-0.408887" x2="39.1971" y2="75.6571" gradientUnits="userSpaceOnUse">
<stop stop-color="#20C4F4"/>
<stop offset="1" stop-color="#51BF9D"/>
</linearGradient>
<linearGradient id="paint90_linear_216_197" x1="28.4235" y1="-0.0656531" x2="32.1024" y2="76.0001" gradientUnits="userSpaceOnUse">
<stop stop-color="#20C4F4"/>
<stop offset="1" stop-color="#51BF9D"/>
</linearGradient>
<linearGradient id="paint91_linear_216_197" x1="25.5693" y1="0.0730192" x2="29.2482" y2="76.1314" gradientUnits="userSpaceOnUse">
<stop stop-color="#20C4F4"/>
<stop offset="1" stop-color="#51BF9D"/>
</linearGradient>
<linearGradient id="paint92_linear_216_197" x1="28.6204" y1="-0.0729487" x2="32.2993" y2="75.9855" gradientUnits="userSpaceOnUse">
<stop stop-color="#20C4F4"/>
<stop offset="1" stop-color="#51BF9D"/>
</linearGradient>
<linearGradient id="paint93_linear_216_197" x1="35.7955" y1="-0.423327" x2="39.4743" y2="75.6424" gradientUnits="userSpaceOnUse">
<stop stop-color="#20C4F4"/>
<stop offset="1" stop-color="#51BF9D"/>
</linearGradient>
<linearGradient id="paint94_linear_216_197" x1="42.8905" y1="-0.766405" x2="46.5693" y2="75.2993" gradientUnits="userSpaceOnUse">
<stop stop-color="#20C4F4"/>
<stop offset="1" stop-color="#51BF9D"/>
</linearGradient>
<linearGradient id="paint95_linear_216_197" x1="45.7444" y1="-0.90509" x2="49.4232" y2="75.1606" gradientUnits="userSpaceOnUse">
<stop stop-color="#20C4F4"/>
<stop offset="1" stop-color="#51BF9D"/>
</linearGradient>
<linearGradient id="paint96_linear_216_197" x1="42.686" y1="-0.759238" x2="46.3722" y2="75.3067" gradientUnits="userSpaceOnUse">
<stop stop-color="#20C4F4"/>
<stop offset="1" stop-color="#51BF9D"/>
</linearGradient>
<linearGradient id="paint97_linear_216_197" x1="35.5986" y1="-0.416028" x2="39.2774" y2="75.6497" gradientUnits="userSpaceOnUse">
<stop stop-color="#20C4F4"/>
<stop offset="1" stop-color="#51BF9D"/>
</linearGradient>
<linearGradient id="paint98_linear_216_197" x1="32.0658" y1="-0.240854" x2="35.752" y2="75.8176" gradientUnits="userSpaceOnUse">
<stop stop-color="#20C4F4"/>
<stop offset="1" stop-color="#51BF9D"/>
</linearGradient>
<linearGradient id="paint99_linear_216_197" x1="39.2995" y1="-0.591213" x2="42.9783" y2="75.4672" gradientUnits="userSpaceOnUse">
<stop stop-color="#20C4F4"/>
<stop offset="1" stop-color="#51BF9D"/>
</linearGradient>
</defs>
</svg>
